REM DIRINDEX 1\2\6,1\2\7,1\2\8,1\3\9,1\3\10,1\3\11,1\4\12,1\4\13,1\4\14,1\5\15,1\5\16,1\5\17,1\5\18
REM DIRNAME cjc019,folder01,folder02,folder03,folder04,folder05,folder06,folder07,folder08,folder09,folder10,folder11,folder12,folder13,folder14,folder15,folder16,folder17
TITLE ""
FILE "2Q_j_1278-1291.mp3" MP3
  TRACK 01 AUDIO
    TITLE "6:cjc019_0296"
    INDEX 01 00:00:00
  TRACK 02 AUDIO
    TITLE "0:"
    INDEX 01 00:01:17
  TRACK 03 AUDIO
    TITLE "7:cjc019_0297"
    INDEX 01 00:01:69
  TRACK 04 AUDIO
    TITLE "0:"
    INDEX 01 00:04:27
  TRACK 05 AUDIO
    TITLE "8:cjc019_0298"
    INDEX 01 00:05:05
  TRACK 06 AUDIO
    TITLE "0:"
    INDEX 01 00:09:02
  TRACK 07 AUDIO
    TITLE "6:cjc019_0299"
    INDEX 01 00:09:57
  TRACK 08 AUDIO
    TITLE "0:"
    INDEX 01 00:11:39
  TRACK 09 AUDIO
    TITLE "7:cjc019_0300"
    INDEX 01 00:12:22
  TRACK 10 AUDIO
    TITLE "0:"
    INDEX 01 00:14:66
  TRACK 11 AUDIO
    TITLE "8:cjc019_0301"
    INDEX 01 00:15:44
  TRACK 12 AUDIO
    TITLE "0:"
    INDEX 01 00:18:50
  TRACK 13 AUDIO
    TITLE "6:cjc019_0302"
    INDEX 01 00:19:30
  TRACK 14 AUDIO
    TITLE "0:"
    INDEX 01 00:20:71
  TRACK 15 AUDIO
    TITLE "7:cjc019_0303"
    INDEX 01 00:21:49
  TRACK 16 AUDIO
    TITLE "0:"
    INDEX 01 00:23:32
  TRACK 17 AUDIO
    TITLE "8:cjc019_0304"
    INDEX 01 00:24:12
  TRACK 18 AUDIO
    TITLE "0:"
    INDEX 01 00:27:51
  TRACK 19 AUDIO
    TITLE "6:cjc019_0305"
    INDEX 01 00:28:29
  TRACK 20 AUDIO
    TITLE "0:"
    INDEX 01 00:29:62
  TRACK 21 AUDIO
    TITLE "7:cjc019_0306"
    INDEX 01 00:30:40
  TRACK 22 AUDIO
    TITLE "0:"
    INDEX 01 00:32:00
  TRACK 23 AUDIO
    TITLE "8:cjc019_0307"
    INDEX 01 00:32:54
  TRACK 24 AUDIO
    TITLE "0:"
    INDEX 01 00:36:15
  TRACK 25 AUDIO
    TITLE "6:cjc019_0308"
    INDEX 01 00:36:70
  TRACK 26 AUDIO
    TITLE "0:"
    INDEX 01 00:38:00
  TRACK 27 AUDIO
    TITLE "7:cjc019_0309"
    INDEX 01 00:38:55
  TRACK 28 AUDIO
    TITLE "0:"
    INDEX 01 00:40:60
  TRACK 29 AUDIO
    TITLE "8:cjc019_0310"
    INDEX 01 00:41:42
  TRACK 30 AUDIO
    TITLE "0:"
    INDEX 01 00:44:26
  TRACK 31 AUDIO
    TITLE "6:cjc019_0311"
    INDEX 01 00:45:06
  TRACK 32 AUDIO
    TITLE "0:"
    INDEX 01 00:46:23
  TRACK 33 AUDIO
    TITLE "7:cjc019_0312"
    INDEX 01 00:47:09
  TRACK 34 AUDIO
    TITLE "0:"
    INDEX 01 00:48:32
  TRACK 35 AUDIO
    TITLE "8:cjc019_0313"
    INDEX 01 00:49:16
  TRACK 36 AUDIO
    TITLE "0:"
    INDEX 01 00:53:00
  TRACK 37 AUDIO
    TITLE "6:cjc019_0314"
    INDEX 01 00:53:55
  TRACK 38 AUDIO
    TITLE "0:"
    INDEX 01 00:55:14
  TRACK 39 AUDIO
    TITLE "7:cjc019_0315"
    INDEX 01 00:55:69
  TRACK 40 AUDIO
    TITLE "0:"
    INDEX 01 00:57:39
  TRACK 41 AUDIO
    TITLE "8:cjc019_0316"
    INDEX 01 00:58:20
  TRACK 42 AUDIO
    TITLE "0:"
    INDEX 01 01:04:72
  TRACK 43 AUDIO
    TITLE "6:cjc019_0317"
    INDEX 01 01:05:48
  TRACK 44 AUDIO
    TITLE "0:"
    INDEX 01 01:07:17
  TRACK 45 AUDIO
    TITLE "7:cjc019_0318"
    INDEX 01 01:08:01
  TRACK 46 AUDIO
    TITLE "0:"
    INDEX 01 01:12:38
  TRACK 47 AUDIO
    TITLE "8:cjc019_0319"
    INDEX 01 01:13:18
  TRACK 48 AUDIO
    TITLE "0:"
    INDEX 01 01:17:65
  TRACK 49 AUDIO
    TITLE "6:cjc019_0320"
    INDEX 01 01:18:47
  TRACK 50 AUDIO
    TITLE "0:"
    INDEX 01 01:19:72
  TRACK 51 AUDIO
    TITLE "7:cjc019_0321"
    INDEX 01 01:20:48
  TRACK 52 AUDIO
    TITLE "0:"
    INDEX 01 01:23:44
  TRACK 53 AUDIO
    TITLE "8:cjc019_0322"
    INDEX 01 01:24:20
  TRACK 54 AUDIO
    TITLE "0:"
    INDEX 01 01:29:48
  TRACK 55 AUDIO
    TITLE "6:cjc019_0323"
    INDEX 01 01:30:36
  TRACK 56 AUDIO
    TITLE "0:"
    INDEX 01 01:32:68
  TRACK 57 AUDIO
    TITLE "7:cjc019_0324"
    INDEX 01 01:33:44
  TRACK 58 AUDIO
    TITLE "0:"
    INDEX 01 01:36:09
  TRACK 59 AUDIO
    TITLE "8:cjc019_0325"
    INDEX 01 01:36:62
  TRACK 60 AUDIO
    TITLE "0:"
    INDEX 01 01:41:14
  TRACK 61 AUDIO
    TITLE "6:cjc019_0326"
    INDEX 01 01:41:67
  TRACK 62 AUDIO
    TITLE "0:"
    INDEX 01 01:43:11
  TRACK 63 AUDIO
    TITLE "7:cjc019_0327"
    INDEX 01 01:43:70
  TRACK 64 AUDIO
    TITLE "0:"
    INDEX 01 01:46:59
  TRACK 65 AUDIO
    TITLE "8:cjc019_0328"
    INDEX 01 01:47:37
  TRACK 66 AUDIO
    TITLE "0:"
    INDEX 01 01:50:23
  TRACK 67 AUDIO
    TITLE "6:cjc019_0329"
    INDEX 01 01:51:05
  TRACK 68 AUDIO
    TITLE "0:"
    INDEX 01 01:52:30
  TRACK 69 AUDIO
    TITLE "7:cjc019_0330"
    INDEX 01 01:53:08
  TRACK 70 AUDIO
    TITLE "0:"
    INDEX 01 01:55:05
  TRACK 71 AUDIO
    TITLE "8:cjc019_0331"
    INDEX 01 01:55:63
  TRACK 72 AUDIO
    TITLE "0:"
    INDEX 01 01:58:03
  TRACK 73 AUDIO
    TITLE "6:cjc019_0332"
    INDEX 01 01:58:62
  TRACK 74 AUDIO
    TITLE "0:"
    INDEX 01 02:00:22
  TRACK 75 AUDIO
    TITLE "7:cjc019_0333"
    INDEX 01 02:01:01
  TRACK 76 AUDIO
    TITLE "0:"
    INDEX 01 02:02:15
  TRACK 77 AUDIO
    TITLE "8:cjc019_0334"
    INDEX 01 02:02:71
  TRACK 78 AUDIO
    TITLE "0:"
    INDEX 01 02:06:52
  TRACK 79 AUDIO
    TITLE "6:cjc019_0335"
    INDEX 01 02:07:29
  TRACK 80 AUDIO
    TITLE "0:"
    INDEX 01 02:08:66
  TRACK 81 AUDIO
    TITLE "7:cjc019_0336"
    INDEX 01 02:09:48
  TRACK 82 AUDIO
    TITLE "0:"
    INDEX 01 02:12:35
  TRACK 83 AUDIO
    TITLE "8:cjc019_0337"
    INDEX 01 02:13:16
  TRACK 84 AUDIO
    TITLE "0:"
    INDEX 01 02:17:26
